# Blender 4.2.3 LTS
# www.blender.org
mtllib asagayrock.mtl
o Cube
v 1.162687 0.479355 -0.861275
v 1.017353 0.492751 -0.887578
v 0.926511 0.621205 -0.832084
v 1.105848 0.596428 -0.813828
v 0.545971 0.962987 -0.458479
v 0.507562 0.999077 -0.333180
v 0.649587 0.974884 -0.332921
v 0.752756 0.916582 -0.469466
v 2.234920 0.377847 -0.454381
v 1.971961 0.514585 -0.487474
v 2.226190 0.467212 -0.354981
v 2.300161 0.371660 -0.355729
v 1.338157 -0.954102 -0.364340
v 1.153703 -0.989773 -0.346928
v 1.236452 -0.930481 -0.467429
v 1.376123 -0.895565 -0.474396
v 1.169603 -0.385273 -0.839628
v 1.148500 -0.251569 -0.880807
v 1.291849 -0.257949 -0.852910
v 1.315723 -0.397016 -0.807704
v 2.284571 -0.461355 -0.352007
v 2.148607 -0.470962 -0.468197
v 2.282151 -0.345661 -0.452359
v 2.343934 -0.353453 -0.352073
v 2.187648 0.363541 0.507026
v 2.261449 0.366013 0.415467
v 2.188907 0.456758 0.414776
v 1.920375 0.476130 0.524554
v 0.634212 0.865250 0.296128
v 0.491609 0.869348 0.294897
v 0.521638 0.808461 0.415936
v 0.696388 0.788019 0.430367
v 0.956557 0.327456 0.842358
v 0.946973 0.447607 0.782499
v 0.794537 0.444289 0.806718
v 0.799247 0.322246 0.869924
v 2.218156 -0.459497 0.364322
v 2.285334 -0.363381 0.369130
v 2.209791 -0.364153 0.464482
v 1.964500 -0.489876 0.489028
v 0.679997 -0.358664 0.957593
v 0.528211 -0.354689 0.976897
v 0.506221 -0.476214 0.938149
v 0.650490 -0.485185 0.918685
v 0.754073 -0.970621 0.366567
v 0.677570 -0.923432 0.489028
v 0.534410 -0.946678 0.487826
v 0.576040 -0.998010 0.364153
v -1.304321 0.820674 -0.821732
v -1.217741 0.701659 -0.883348
v -1.429559 0.716957 -0.852288
v -1.450423 0.811420 -0.797672
v -2.425956 0.497067 -0.473460
v -2.529770 0.396997 -0.370421
v -2.430851 0.536159 -0.386627
v -2.149338 0.658425 -0.513426
v -1.141757 1.007207 -0.496856
v -1.304910 0.975320 -0.504534
v -1.249469 0.983962 -0.371654
v -1.107541 1.007893 -0.369089
v -2.572370 -0.430069 -0.326467
v -2.631347 -0.340194 -0.334953
v -2.554523 -0.332036 -0.422735
v -2.274558 -0.445797 -0.427410
v -0.476964 -0.237666 -0.854578
v -0.282569 -0.229391 -0.874277
v -0.273603 -0.351999 -0.819872
v -0.464059 -0.362441 -0.791887
v -0.901281 -0.852004 -0.194975
v -0.878436 -0.795431 -0.317376
v -0.711233 -0.814124 -0.324415
v -0.753048 -0.874961 -0.198436
v -2.727638 -0.086463 0.350228
v -2.767218 -0.191156 0.353265
v -2.721855 -0.220633 0.429817
v -2.311985 -0.006990 0.480477
v -0.641880 0.238990 0.941217
v -0.465081 0.272808 0.957450
v -0.483602 0.371708 0.905157
v -0.699985 0.349208 0.874415
v -1.145503 0.560484 0.397342
v -1.088612 0.495810 0.518324
v -0.914781 0.546314 0.517064
v -1.006641 0.602036 0.395082
v -0.755013 -0.945947 0.357925
v -0.605822 -0.966641 0.359166
v -0.602592 -0.918208 0.471542
v -0.754899 -0.892815 0.473557
v -0.739297 -0.365114 0.848641
v -0.716397 -0.234833 0.899510
v -0.873698 -0.227494 0.873722
v -0.884529 -0.362132 0.826369
v -2.606844 -0.464150 0.351573
v -2.328437 -0.480880 0.468354
v -2.641402 -0.372967 0.439189
v -2.711500 -0.381233 0.347634
vn 0.2874 -0.0025 0.9578
vn -0.2448 -0.9664 -0.0783
vn 0.2273 -0.6746 0.7024
vn 0.9969 0.0444 0.0655
vn 0.3789 -0.9113 0.1611
vn -0.0037 -0.0118 -0.9999
vn -0.0650 -0.6374 -0.7678
vn -0.0542 0.7976 0.6007
vn -0.0713 -0.6340 0.7701
vn -0.2395 -0.1367 -0.9612
vn -0.3113 0.7098 0.6319
vn -0.2335 -0.0341 0.9717
vn -0.1140 -0.6823 -0.7221
vn -0.0515 -0.9941 -0.0958
vn 0.2652 0.8265 -0.4965
vn -0.1526 -0.5727 0.8054
vn 0.1453 0.7610 0.6323
vn -0.3265 0.7953 0.5107
vn 0.0051 0.0391 0.9992
vn -0.0697 0.9296 0.3619
vn -0.3284 0.8845 -0.3315
vn -0.9784 0.0419 -0.2022
vn 0.2770 0.9564 0.0925
vn 0.2860 -0.5084 -0.8123
vn 0.0543 0.8045 -0.5915
vn 0.1739 0.4679 -0.8665
vn 0.1852 0.9522 -0.2431
vn 0.5091 0.6618 -0.5503
vn 0.1700 -0.9107 -0.3764
vn 0.1786 -0.2702 -0.9461
vn 0.6443 -0.4934 -0.5844
vn 0.4137 0.6376 0.6499
vn 0.0456 0.8854 0.4626
vn 0.1346 0.4552 0.8802
vn 0.4771 -0.6163 0.6265
vn 0.1095 -0.3176 0.9419
vn 0.1364 -0.8954 0.4239
vn -0.1310 0.4224 -0.8969
vn -0.6164 0.7045 -0.3519
vn -0.1808 0.9832 0.0270
vn -0.3636 -0.6182 -0.6969
vn -0.0901 -0.4326 -0.8971
vn -0.1316 -0.8826 -0.4514
vn -0.4053 0.4534 0.7938
vn -0.1684 0.4405 0.8818
vn -0.2317 0.8077 0.5421
vn -0.1372 -0.9041 0.4047
vn -0.1592 -0.3253 0.9321
vn -0.3727 -0.7125 0.5945
vn 0.3491 0.4853 -0.8016
vn 0.1586 0.8014 -0.5768
vn 0.3001 0.9313 -0.2063
vn 0.4409 -0.8187 -0.3680
vn 0.1167 -0.5464 -0.8294
vn 0.3461 -0.2442 -0.9059
vn 0.2235 0.4254 0.8770
vn 0.2037 0.8999 0.3857
vn 0.0589 0.7447 0.6648
vn 0.2910 -0.8463 0.4462
vn 0.2865 -0.3626 0.8868
vn 0.0800 -0.6909 0.7185
vn -0.1414 0.8897 -0.4340
vn -0.4094 0.4546 -0.7911
vn -0.3524 0.9305 0.1003
vn -0.1880 -0.8824 -0.4313
vn -0.1638 -0.4184 -0.8933
vn -0.0861 -0.6934 -0.7154
vn -0.3264 0.7544 0.5695
vn -0.2972 0.3668 0.8816
vn -0.1930 0.8055 0.5603
vn -0.2310 -0.8801 0.4147
vn -0.1100 -0.5737 0.8117
vn -0.2019 -0.3209 0.9253
vn -0.1450 -0.9814 -0.1257
vn -0.7190 -0.6880 -0.0986
vn -0.0883 -0.8771 -0.4721
vn -0.0153 -0.3510 -0.9363
vn 0.8434 0.0509 -0.5349
vn 0.1860 0.0226 -0.9823
vn -0.1192 -0.0684 0.9905
vn -0.8009 -0.3129 0.5106
vn 0.1488 0.1006 0.9837
vn 0.7813 -0.0134 0.6240
vn -0.1252 -0.1288 -0.9837
vn -0.7446 0.0729 -0.6635
vn -0.1239 0.8690 0.4791
vn 0.0422 0.4663 0.8836
vn 0.0962 0.9774 0.1885
vn 0.7852 0.6175 0.0452
vn -0.0273 -0.9224 0.3854
vn -0.0928 -0.3191 0.9432
vn -0.1989 0.8506 0.4867
vn -0.8621 0.4973 0.0969
vn 0.0191 0.9895 -0.1435
vn 0.0382 0.4497 -0.8924
vn 0.1751 -0.9767 0.1243
vn 0.8469 -0.5270 0.0707
vn 0.3673 0.0377 -0.9293
vt 0.545090 0.813037
vt 0.454884 0.813895
vt 0.454504 0.685735
vt 0.545495 0.686563
vt 0.192556 0.581703
vt 0.192721 0.668372
vt 0.127538 0.669878
vt 0.127684 0.580127
vt 0.361800 0.686187
vt 0.307605 0.740382
vt 0.307605 0.686187
vt 0.454478 0.579440
vt 0.545522 0.579098
vt 0.545550 0.670896
vt 0.454449 0.670555
vt 0.312145 0.670746
vt 0.313452 0.579037
vt 0.437338 0.579510
vt 0.438803 0.670488
vt 0.453267 0.326353
vt 0.546549 0.325449
vt 0.545703 0.425722
vt 0.454223 0.424797
vt 0.300637 0.564002
vt 0.199909 0.564089
vt 0.200594 0.506219
vt 0.299939 0.506347
vt 0.617771 0.825724
vt 0.616875 0.923516
vt 0.562711 0.923150
vt 0.561985 0.826211
vt 0.201550 0.685958
vt 0.298528 0.686063
vt 0.298847 0.743584
vt 0.201249 0.743669
vt 0.548068 0.312340
vt 0.452271 0.314353
vt 0.453430 0.184755
vt 0.546566 0.187055
vt 0.564845 0.062402
vt 0.564845 0.013487
vt 0.613761 0.062402
vt 0.459583 0.002917
vt 0.540093 0.002765
vt 0.529369 0.068008
vt 0.470879 0.067800
vt 0.137656 0.564805
vt 0.192415 0.510046
vt 0.192415 0.564805
vt 0.199586 0.581325
vt 0.299419 0.580199
vt 0.298258 0.669995
vt 0.200816 0.668650
vt 0.561408 0.433925
vt 0.611378 0.433925
vt 0.561408 0.483895
vt 0.192677 0.686342
vt 0.192677 0.741180
vt 0.137839 0.686342
vt 0.561613 0.765727
vt 0.612435 0.816549
vt 0.561613 0.816549
vt 0.622066 0.078094
vt 0.621522 0.171906
vt 0.558389 0.171906
vt 0.557836 0.078098
vt 0.454974 0.826285
vt 0.544780 0.826458
vt 0.542986 0.923497
vt 0.456963 0.923554
vt 0.699927 0.580200
vt 0.800054 0.578411
vt 0.799926 0.671617
vt 0.700074 0.669799
vt 0.563890 0.236361
vt 0.563890 0.190476
vt 0.609775 0.190476
vt 0.466231 0.079654
vt 0.534525 0.078478
vt 0.542838 0.170258
vt 0.455774 0.170174
vt 0.689632 0.580367
vt 0.689540 0.669624
vt 0.560452 0.670836
vt 0.560367 0.579166
vt 0.309192 0.563705
vt 0.309192 0.511352
vt 0.361545 0.563705
vt 0.615314 0.324561
vt 0.616918 0.424843
vt 0.562842 0.425337
vt 0.564300 0.324009
vt 0.545490 0.437841
vt 0.547895 0.429646
vt 0.554646 0.429646
vt 0.554646 0.434764
vt 0.695354 0.570354
vt 0.695354 0.580634
vt 0.680386 0.570354
vt 0.546791 0.570354
vt 0.554646 0.570354
vt 0.554646 0.579478
vt 0.304646 0.574190
vt 0.300558 0.570354
vt 0.304646 0.570354
vt 0.304646 0.505664
vt 0.304646 0.500000
vt 0.307941 0.503294
vt 0.421233 0.570354
vt 0.442315 0.570354
vt 0.445354 0.579437
vt 0.545033 0.679646
vt 0.554646 0.684109
vt 0.554646 0.713069
vt 0.625000 0.820354
vt 0.625000 0.824595
vt 0.610633 0.820354
vt 0.549043 0.820354
vt 0.554646 0.820354
vt 0.554646 0.828617
vt 0.372330 0.679646
vt 0.375000 0.679646
vt 0.371996 0.682650
vt 0.308988 0.745658
vt 0.304646 0.750000
vt 0.304646 0.743925
vt 0.304646 0.665465
vt 0.304646 0.679426
vt 0.298051 0.679646
vt 0.550574 0.320354
vt 0.540369 0.320354
vt 0.554646 0.312920
vt 0.549048 0.179646
vt 0.554646 0.175658
vt 0.554646 0.179646
vt 0.625000 0.179646
vt 0.618243 0.179646
vt 0.625000 0.170738
vt 0.125000 0.579023
vt 0.127350 0.570354
vt 0.138654 0.570354
vt 0.195354 0.504582
vt 0.197430 0.500000
vt 0.195354 0.511931
vt 0.547950 0.000000
vt 0.554646 0.000000
vt 0.554646 0.005818
vt 0.622434 0.070354
vt 0.611852 0.057206
vt 0.625000 0.070354
vt 0.203596 0.750000
vt 0.195354 0.750000
vt 0.195354 0.743843
vt 0.136775 0.679646
vt 0.125643 0.679646
vt 0.125000 0.669385
vt 0.545428 0.562259
vt 0.554646 0.534704
vt 0.580446 0.570354
vt 0.316527 0.570354
vt 0.370119 0.565473
vt 0.554646 0.814713
vt 0.557662 0.753016
vt 0.622334 0.817688
vt 0.310448 0.679646
vt 0.619042 0.185604
vt 0.567850 0.236796
vt 0.554646 0.221150
vt 0.127665 0.567689
vt 0.190579 0.504775
vt 0.557701 0.003055
vt 0.193867 0.748513
vt 0.126765 0.681411
vt 0.298423 0.500000
vt 0.454569 0.561932
vt 0.454503 0.438166
vt 0.461549 0.000000
vt 0.625000 0.924722
vt 0.300358 0.750000
vt 0.625000 0.078311
vt 0.697599 0.570354
vt 0.801716 0.570354
s 0
usemtl Material
f 33/1/1 41/2/1 39/3/1 25/4/1
f 69/5/2 85/6/2 93/7/2 61/8/2
f 40/9/3 44/10/3 46/11/3
f 24/12/4 12/13/4 26/14/4 38/15/4
f 45/16/5 13/17/5 21/18/5 37/19/5
f 66/20/6 50/21/6 2/22/6 18/23/6
f 15/24/7 71/25/7 67/26/7 17/27/7
f 31/28/8 83/29/8 79/30/8 35/31/8
f 87/32/9 47/33/9 43/34/9 89/35/9
f 51/36/10 65/37/10 63/38/10 53/39/10
f 76/40/11 80/41/11 82/42/11
f 91/43/12 77/44/12 75/45/12 95/46/12
f 64/47/13 68/48/13 70/49/13
f 72/50/14 14/51/14 48/52/14 86/53/14
f 4/54/15 8/55/15 10/56/15
f 88/57/16 92/58/16 94/59/16
f 28/60/17 32/61/17 34/62/17
f 81/63/18 59/64/18 55/65/18 73/66/18
f 42/67/19 36/68/19 78/69/19 90/70/19
f 6/71/20 60/72/20 84/73/20 30/74/20
f 52/75/21 56/76/21 58/77/21
f 96/78/22 74/79/22 54/80/22 62/81/22
f 7/82/23 29/83/23 27/84/23 11/85/23
f 16/86/24 20/87/24 22/88/24
f 57/89/25 5/90/25 3/91/25 49/92/25
f 1/93/26 2/94/26 3/95/26 4/96/26
f 5/97/27 6/98/27 7/82/27 8/99/27
f 9/100/28 10/101/28 11/102/28 12/13/28
f 13/103/29 14/51/29 15/104/29 16/105/29
f 17/106/30 18/107/30 19/108/30 20/87/30
f 21/18/31 22/109/31 23/110/31 24/111/31
f 25/4/32 26/112/32 27/113/32 28/114/32
f 29/115/33 30/116/33 31/28/33 32/117/33
f 33/118/34 34/119/34 35/120/34 36/68/34
f 37/121/35 38/122/35 39/123/35 40/9/35
f 41/124/36 42/125/36 43/126/36 44/10/36
f 45/127/37 46/128/37 47/129/37 48/52/37
f 49/130/38 50/131/38 51/36/38 52/132/38
f 53/133/39 54/80/39 55/134/39 56/135/39
f 57/136/40 58/137/40 59/64/40 60/138/40
f 61/8/41 62/139/41 63/140/41 64/141/41
f 65/142/42 66/143/42 67/26/42 68/144/42
f 69/5/43 70/49/43 71/25/43 72/50/43
f 73/66/44 74/79/44 75/45/44 76/40/44
f 77/44/45 78/145/45 79/146/45 80/147/45
f 81/148/46 82/42/46 83/149/46 84/150/46
f 85/6/47 86/53/47 87/32/47 88/57/47
f 89/35/48 90/151/48 91/152/48 92/153/48
f 93/7/49 94/154/49 95/155/49 96/156/49
f 9/157/50 1/93/50 4/96/50 10/158/50
f 3/91/51 5/90/51 8/55/51 4/54/51
f 7/82/52 11/85/52 10/159/52 8/99/52
f 21/18/53 13/17/53 16/160/53 22/109/53
f 15/24/54 17/27/54 20/87/54 16/86/54
f 19/108/55 23/161/55 22/88/55 20/87/55
f 33/1/56 25/4/56 28/114/56 34/162/56
f 27/163/57 29/164/57 32/61/57 28/60/57
f 31/28/58 35/31/58 34/62/58 32/61/58
f 45/165/59 37/121/59 40/9/59 46/11/59
f 39/123/60 41/124/60 44/10/60 40/9/60
f 43/34/61 47/33/61 46/11/61 44/10/61
f 57/166/62 49/167/62 52/75/62 58/77/62
f 51/36/63 53/39/63 56/168/63 52/132/63
f 55/65/64 59/64/64 58/77/64 56/76/64
f 69/5/65 61/8/65 64/47/65 70/49/65
f 63/169/66 65/170/66 68/48/66 64/47/66
f 67/26/67 71/25/67 70/49/67 68/48/67
f 81/63/68 73/66/68 76/40/68 82/42/68
f 75/45/69 77/44/69 80/41/69 76/40/69
f 79/171/70 83/149/70 82/42/70 80/41/70
f 93/7/71 85/6/71 88/57/71 94/59/71
f 87/32/72 89/35/72 92/58/72 88/57/72
f 91/172/73 95/173/73 94/59/73 92/58/73
f 72/50/74 86/53/74 85/6/74 69/5/74
f 96/156/75 62/139/75 61/8/75 93/7/75
f 14/51/76 72/50/76 71/25/76 15/24/76
f 66/143/77 18/174/77 17/27/77 67/26/77
f 12/13/78 24/12/78 23/175/78 9/157/78
f 18/23/79 2/22/79 1/93/79 19/176/79
f 90/177/80 78/145/80 77/44/80 91/43/80
f 74/79/81 96/78/81 95/46/81 75/45/81
f 36/68/82 42/67/82 41/2/82 33/1/82
f 38/15/83 26/14/83 25/4/83 39/3/83
f 50/21/84 66/20/84 65/37/84 51/36/84
f 62/81/85 54/80/85 53/39/85 63/38/85
f 30/116/86 84/178/86 83/29/86 31/28/86
f 78/69/87 36/68/87 35/31/87 79/30/87
f 6/71/88 30/74/88 29/83/88 7/82/88
f 26/14/89 12/13/89 11/85/89 27/84/89
f 86/53/90 48/52/90 47/33/90 87/32/90
f 42/179/91 90/151/91 89/35/91 43/34/91
f 84/180/92 60/138/92 59/64/92 81/63/92
f 54/80/93 74/79/93 73/66/93 55/65/93
f 60/72/94 6/71/94 5/181/94 57/182/94
f 2/22/95 50/21/95 49/92/95 3/91/95
f 48/52/96 14/51/96 13/17/96 45/16/96
f 24/12/97 38/15/97 37/19/97 21/18/97
f 9/157/98 23/175/98 19/176/98 1/93/98
